<svg width="1280" height="800" viewBox="0 0 1280 800" fill="none" xmlns="http://www.w3.org/2000/svg">
  <rect width="1280" height="800" fill="#0F172A"/>
  <rect y="500" width="1280" height="300" fill="#0EA5E9" fill-opacity="0.72"/>
  <rect x="70" y="220" width="230" height="360" fill="#111827"/>
  <rect x="940" y="180" width="220" height="420" fill="#111827"/>
  <rect x="480" y="545" width="280" height="75" fill="#1F2937"/>
  <rect x="520" y="520" width="72" height="34" fill="#FACC15"/>
  <path d="M0 560C120 525 210 595 330 560C450 525 540 595 660 560C780 525 870 595 990 560C1110 525 1170 585 1280 560" stroke="#E0F2FE" stroke-width="9" opacity="0.75"/>
  <path d="M0 650C120 615 210 685 330 650C450 615 540 685 660 650C780 615 870 685 990 650C1110 615 1170 675 1280 650" stroke="#E0F2FE" stroke-width="9" opacity="0.55"/>
</svg>
